<svg xmlns="http://www.w3.org/2000/svg" viewBox="0 0 359.98 359.98"><defs><style>.cls-1{fill:#002433;}.cls-2{fill:#fff;opacity:0.6;}.cls-3{fill:#14ff85;}</style></defs><title>dollar</title><g id="Layer_2" data-name="Layer 2"><g id="Layer_1-2" data-name="Layer 1"><circle class="cls-1" cx="179.99" cy="179.99" r="179.99" transform="translate(-74.55 179.99) rotate(-45)"/><path class="cls-2" d="M31.57,108.68a3.45,3.45,0,0,1-3.08-5A168.88,168.88,0,0,1,180,10.38a170.69,170.69,0,0,1,30.59,2.76,3.46,3.46,0,1,1-1.24,6.8A163,163,0,0,0,34.66,106.78,3.47,3.47,0,0,1,31.57,108.68Z"/><circle class="cls-3" cx="183.91" cy="183.91" r="152.34"/><path class="cls-1" d="M169,297.16V280.59c-17.28-.7-34.37-4.77-46.5-10.09a9.57,9.57,0,0,1-5.3-11.32l4.21-15.44a9.66,9.66,0,0,1,13.12-6.32,112.32,112.32,0,0,0,42.93,9c16.64,0,29.05-5.65,29.05-17.21,0-10.44-9.59-16.64-32.71-22.84-33-9-56.7-23.42-56.7-52.47,0-26.23,19.18-46.25,52.46-51.61V85.75a9.66,9.66,0,0,1,9.66-9.65h9.74a9.66,9.66,0,0,1,9.66,9.65v14.88c16,.64,27.62,3.38,36.86,6.62a9.61,9.61,0,0,1,6,11.6l-3.87,14.28a9.62,9.62,0,0,1-12.71,6.5,100.75,100.75,0,0,0-36.16-6.56c-19.74,0-25.38,8.18-25.38,15.51,0,9,11.85,15.23,37.51,23.13,36.67,11,51.9,26.23,51.9,53.59,0,25.11-18.61,47.67-54.72,53.31v18.55a9.66,9.66,0,0,1-9.65,9.66h-9.74A9.66,9.66,0,0,1,169,297.16Z"/></g></g></svg>