<svg xmlns="http://www.w3.org/2000/svg" viewBox="0 0 366 376"><defs><style>.cls-1{fill:#14ff85;}.cls-2,.cls-3{fill:#002433;}.cls-2{opacity:0.2;}</style></defs><title>dollar2</title><g id="Layer_2" data-name="Layer 2"><g id="Layer_1-2" data-name="Layer 1"><circle class="cls-1" cx="170.04" cy="208.96" r="167.04"/><circle class="cls-2" cx="170.04" cy="208.96" r="163.1"/><circle class="cls-3" cx="170.04" cy="208.96" r="152.34"/><circle class="cls-1" cx="320.54" cy="45.46" r="45.46"/><circle class="cls-2" cx="320.54" cy="45.46" r="44.38"/><circle class="cls-3" cx="320.54" cy="45.46" r="41.46"/><circle class="cls-1" cx="30.54" cy="50.46" r="30.54"/><circle class="cls-2" cx="30.54" cy="50.46" r="29.82"/><circle class="cls-3" cx="30.54" cy="50.46" r="27.85"/><path class="cls-1" d="M316.34,71.28v-4.1a33.27,33.27,0,0,1-11.51-2.5,2.37,2.37,0,0,1-1.32-2.8l1.05-3.83a2.39,2.39,0,0,1,3.25-1.56,27.76,27.76,0,0,0,10.63,2.24c4.12,0,7.19-1.4,7.19-4.26,0-2.59-2.37-4.12-8.1-5.66-8.17-2.24-14-5.8-14-13,0-6.5,4.75-11.46,13-12.78V18.93a2.39,2.39,0,0,1,2.39-2.39h2.41a2.4,2.4,0,0,1,2.4,2.39v3.69a30.31,30.31,0,0,1,9.12,1.64,2.38,2.38,0,0,1,1.49,2.87l-1,3.53a2.39,2.39,0,0,1-3.15,1.62,24.76,24.76,0,0,0-8.95-1.63c-4.89,0-6.28,2-6.28,3.84,0,2.24,2.93,3.77,9.28,5.73,9.08,2.72,12.86,6.49,12.86,13.27,0,6.21-4.61,11.8-13.55,13.2v4.59a2.39,2.39,0,0,1-2.4,2.39h-2.41A2.39,2.39,0,0,1,316.34,71.28Z"/><path class="cls-1" d="M27.39,65V62.88a17.24,17.24,0,0,1-5.93-1.29,1.22,1.22,0,0,1-.68-1.45l.54-2a1.23,1.23,0,0,1,1.67-.8,14.44,14.44,0,0,0,5.48,1.15c2.13,0,3.71-.72,3.71-2.2S31,54.2,28,53.41c-4.22-1.15-7.24-3-7.24-6.7,0-3.35,2.45-5.9,6.7-6.59V38a1.23,1.23,0,0,1,1.23-1.23h1.24A1.23,1.23,0,0,1,31.17,38v1.9a15.88,15.88,0,0,1,4.71.84,1.23,1.23,0,0,1,.76,1.48l-.49,1.83a1.23,1.23,0,0,1-1.62.83,12.87,12.87,0,0,0-4.62-.84c-2.52,0-3.24,1-3.24,2,0,1.15,1.52,1.94,4.79,2.95,4.68,1.4,6.63,3.35,6.63,6.84,0,3.2-2.38,6.08-7,6.8V65a1.23,1.23,0,0,1-1.23,1.23H28.63A1.23,1.23,0,0,1,27.39,65Z"/><polygon class="cls-1" points="174.95 194.18 174.89 194.18 169.46 184.78 169.46 184.72 169.52 184.72 174.95 194.18"/><polygon class="cls-1" points="190.82 221.71 181.42 205.47 181.48 205.47 190.82 221.71"/><path class="cls-1" d="M266.69,284.88A12.23,12.23,0,0,1,250,280.43a12.37,12.37,0,0,1,0-12.27l-21.79-37.78H207.06l6,10.43v.06h.06a9.54,9.54,0,0,1,8.36,4.83,9.73,9.73,0,1,1-16.84,0l-8.85-15.32-5-8.67-9.34-16.24h46.45l14.41,24.91,18.25,31.67a12.22,12.22,0,0,1,6.1,22.83Z"/><polygon class="cls-1" points="164.03 194.18 169.46 184.78 164.09 194.18 164.03 194.18"/><polygon class="cls-1" points="169.52 184.72 169.46 184.78 169.46 184.72 169.52 184.72"/><path class="cls-1" d="M157.56,205.47l-7.51,13-6.9,11.91L134.3,245.7a9.73,9.73,0,1,1-16.84,0,9.54,9.54,0,0,1,8.36-4.83h.06v-.06l6-10.43H110.68L88.89,268.16a12.24,12.24,0,1,1-21.18,0,12.19,12.19,0,0,1,10.56-6.11l18.31-31.67L111,205.47Z"/><polygon class="cls-1" points="110.99 205.47 96.58 230.38 96.52 230.38 110.8 205.47 110.99 205.47"/><polygon class="cls-1" points="221.4 194.18 174.95 194.18 169.52 184.72 169.46 184.72 169.46 184.78 164.03 194.18 117.52 194.18 130.82 171.11 208.1 171.11 221.4 194.18"/><polygon class="cls-1" points="130.82 171.11 117.52 194.18 117.27 194.18 130.52 171.11 130.82 171.11"/><polygon class="cls-1" points="201.81 159.82 136.99 159.82 169.34 103.42 201.81 159.82"/><polygon class="cls-1" points="221.59 194.18 221.4 194.18 208.1 171.11 208.28 171.11 221.59 194.18"/><polygon class="cls-1" points="242.46 230.38 242.34 230.38 227.93 205.47 228.06 205.47 242.46 230.38"/></g></g></svg>