<svg xmlns="http://www.w3.org/2000/svg" viewBox="0 0 33.87 30"><defs><style>.cls-1{fill:#14ff85;}</style></defs><title>Asset 9</title><g id="Layer_2" data-name="Layer 2"><g id="Layer_1-2" data-name="Layer 1"><polygon class="cls-1" points="25.45 14.87 23.14 14.87 21 11.16 21.12 11.09 23.27 11.09 25.45 14.87"/><polygon class="cls-1" points="32.74 27.5 31 28.5 30.14 27 26.56 20.81 24.21 16.72 26.52 16.72 28.88 20.81 31.87 26 32.74 27.5"/><circle class="cls-1" cx="31.87" cy="28" r="2"/><polygon class="cls-1" points="19.67 14.87 17.83 14.87 16.94 13.33 16.94 13.33 16.02 11.74 15.65 11.09 17.49 11.09 17.86 11.74 19.67 14.87"/><polygon class="cls-1" points="24.78 23.71 23.39 24.51 22.7 23.31 21.26 20.81 20.43 19.38 18.9 16.72 20.74 16.72 23.1 20.81 24.09 22.52 24.78 23.71"/><circle class="cls-1" cx="24.09" cy="24.11" r="1.59"/><polygon class="cls-1" points="14.99 16.72 13.76 18.86 12.63 20.81 11.18 23.31 10.49 24.51 9.11 23.71 9.8 22.52 10.79 20.81 13.15 16.72 14.99 16.72"/><polygon class="cls-1" points="18.24 11.09 17.86 11.74 16.95 13.32 16.94 13.33 16.05 14.87 14.21 14.87 16.02 11.74 16.4 11.09 18.24 11.09"/><circle class="cls-1" cx="9.8" cy="24.11" r="1.59"/><polygon class="cls-1" points="7.36 16.72 9.67 16.72 7.31 20.81 3.73 27 2.87 28.5 1.14 27.5 2 26 5 20.81 7.36 16.72"/><polygon class="cls-1" points="12.88 11.16 10.73 14.87 8.42 14.87 10.61 11.09 12.75 11.09 12.88 11.16"/><circle class="cls-1" cx="2" cy="28" r="2"/><polygon class="cls-1" points="16.93 9.24 11.62 9.24 16.91 0 16.93 9.24"/><polygon class="cls-1" points="14.98 16.72 13.76 18.86 12.63 20.81 4.99 20.81 7.33 16.72 14.98 16.72"/><polygon class="cls-1" points="16.94 13.32 16.94 13.33 16.05 14.87 8.39 14.87 10.56 11.09 16.94 11.09 16.94 13.32"/><polygon class="cls-1" points="22.24 9.24 16.93 9.24 16.91 0 22.24 9.24"/><polygon class="cls-1" points="17.84 14.87 16.95 13.32 16.94 13.32 16.94 11.09 23.3 11.09 25.48 14.87 17.84 14.87"/><polygon class="cls-1" points="28.89 20.81 21.25 20.81 20.43 19.38 18.9 16.72 26.54 16.72 28.89 20.81"/></g></g></svg>