<svg xmlns="http://www.w3.org/2000/svg" viewBox="0 0 262.22 460.1"><defs><style>.cls-1,.cls-3,.cls-8,.cls-9{fill:#002433;}.cls-2,.cls-7{fill:#14ff85;}.cls-3{opacity:0.93;}.cls-4,.cls-5{fill:#d1ebff;}.cls-5{opacity:0.2;}.cls-6{fill:#0ba19f;}.cls-7{opacity:0.4;}.cls-8{opacity:0.3;}.cls-9{opacity:0.1;}</style></defs><title>rocket</title><g id="Layer_2" data-name="Layer 2"><g id="Layer_1-2" data-name="Layer 1"><path class="cls-1" d="M39,332a1.29,1.29,0,0,1-.65-2.41c.75-.44,1.51-.86,2.28-1.29a1.29,1.29,0,0,1,1.24,2.27q-1.12.61-2.22,1.26A1.4,1.4,0,0,1,39,332Z"/><path class="cls-1" d="M260.93,384a1.28,1.28,0,0,1-1.29-1.24,45.44,45.44,0,0,0-.48-4.93,1.29,1.29,0,0,1,1.08-1.48,1.31,1.31,0,0,1,1.48,1.08,48.44,48.44,0,0,1,.5,5.23A1.28,1.28,0,0,1,261,384Zm-2.3-12.51a1.28,1.28,0,0,1-1.22-.89,48.7,48.7,0,0,0-1.81-4.63,1.29,1.29,0,1,1,2.36-1.06,50.19,50.19,0,0,1,1.9,4.88,1.28,1.28,0,0,1-.82,1.63A1.14,1.14,0,0,1,258.63,371.44Zm-5.47-11.5a1.27,1.27,0,0,1-1.09-.6c-.87-1.39-1.82-2.77-2.83-4.12a1.29,1.29,0,0,1,2.07-1.55c1.05,1.41,2,2.85,2.95,4.29a1.29,1.29,0,0,1-1.1,2Zm-7.81-10.07a1.31,1.31,0,0,1-.95-.41q-1.68-1.8-3.54-3.55a1.29,1.29,0,0,1,1.77-1.89q1.92,1.82,3.66,3.68a1.28,1.28,0,0,1-.06,1.82A1.25,1.25,0,0,1,245.35,349.87Zm-9.41-8.61a1.26,1.26,0,0,1-.8-.28c-1.3-1-2.64-2-4-3a1.29,1.29,0,0,1,1.5-2.11q2.15,1.53,4.14,3.1a1.3,1.3,0,0,1,.21,1.82A1.28,1.28,0,0,1,235.94,341.26ZM225.46,334a1.43,1.43,0,0,1-.68-.19c-.91-.56-1.84-1.12-2.78-1.66l-1.58-.9a1.29,1.29,0,1,1,1.26-2.25l1.61.91c1,.56,1.92,1.12,2.84,1.69a1.3,1.3,0,0,1,.43,1.78A1.29,1.29,0,0,1,225.46,334Zm-11.21-6.13a1.24,1.24,0,0,1-.56-.13q-2.26-1.1-4.59-2.13a1.29,1.29,0,1,1,1.05-2.36q2.35,1,4.67,2.17a1.29,1.29,0,0,1-.57,2.45ZM48.1,327.2a1.29,1.29,0,0,1-.56-2.46q2.31-1.1,4.69-2.13a1.29,1.29,0,0,1,1.7.67,1.3,1.3,0,0,1-.67,1.7c-1.56.67-3.09,1.37-4.61,2.1A1.37,1.37,0,0,1,48.1,327.2Zm154.44-4.42a1.25,1.25,0,0,1-.46-.09q-2.36-.9-4.76-1.74a1.29,1.29,0,0,1,.85-2.44q2.45.86,4.84,1.77a1.29,1.29,0,0,1-.47,2.5Zm-142.7-.57a1.29,1.29,0,0,1-.45-2.5c1.6-.6,3.21-1.18,4.85-1.74a1.29,1.29,0,0,1,.83,2.45q-2.41.82-4.77,1.71A1.21,1.21,0,0,1,59.84,322.21Zm130.62-3.55a1.19,1.19,0,0,1-.37-.06c-1.62-.48-3.24-1-4.88-1.39a1.29,1.29,0,1,1,.67-2.5c1.66.45,3.32.92,5,1.42a1.29,1.29,0,0,1-.37,2.53ZM72,318.18a1.3,1.3,0,0,1-1.24-.93,1.28,1.28,0,0,1,.88-1.6q2.46-.72,5-1.37a1.29,1.29,0,1,1,.65,2.5q-2.46.64-4.89,1.35A1.49,1.49,0,0,1,72,318.18Zm106.15-2.77-.29,0c-1.64-.38-3.3-.73-5-1.07a1.29,1.29,0,0,1,.51-2.53q2.52.51,5,1.07a1.3,1.3,0,0,1-.29,2.56ZM84.32,315a1.29,1.29,0,0,1-.28-2.55q2.5-.56,5-1a1.29,1.29,0,0,1,.49,2.54c-1.67.32-3.33.66-5,1Zm81.24-2-.21,0c-1.66-.27-3.34-.52-5-.75a1.29,1.29,0,0,1,.35-2.56c1.7.23,3.4.48,5.09.76a1.29,1.29,0,0,1,1.07,1.48A1.31,1.31,0,0,1,165.56,313Zm-68.69-.28a1.29,1.29,0,0,1-.2-2.57c1.69-.26,3.39-.5,5.09-.72a1.31,1.31,0,0,1,1.45,1.12,1.29,1.29,0,0,1-1.12,1.44c-1.68.22-3.36.46-5,.71Zm56-1.39h-.13c-1.68-.17-3.37-.33-5.06-.46a1.29,1.29,0,0,1,.2-2.57c1.72.13,3.42.28,5.12.45a1.31,1.31,0,0,1,1.16,1.42A1.29,1.29,0,0,1,152.89,311.31Zm-43.35-.17a1.29,1.29,0,0,1-.12-2.58c1.7-.16,3.41-.3,5.12-.42a1.32,1.32,0,0,1,1.38,1.2,1.3,1.3,0,0,1-1.2,1.38c-1.69.12-3.38.26-5.06.41Zm30.61-.75h-.05c-1.69-.07-3.39-.13-5.08-.16a1.29,1.29,0,0,1-1.26-1.32,1.33,1.33,0,0,1,1.31-1.27c1.72,0,3.43.09,5.14.17a1.29,1.29,0,0,1-.06,2.58Zm-17.87-.07a1.29,1.29,0,0,1,0-2.58c1.71-.06,3.43-.11,5.14-.13h0a1.3,1.3,0,0,1,0,2.59q-2.54,0-5.07.12Z"/><path class="cls-1" d="M260.11,394.2a1.07,1.07,0,0,1-.25,0,1.3,1.3,0,0,1-1-1.52c.17-.82.3-1.64.42-2.46a1.29,1.29,0,1,1,2.56.35c-.12.88-.27,1.75-.44,2.62A1.31,1.31,0,0,1,260.11,394.2Z"/><path class="cls-1" d="M221,439.58a1.27,1.27,0,0,1-1.13-.67,1.29,1.29,0,0,1,.51-1.76l2.22-1.25a1.29,1.29,0,1,1,1.3,2.24c-.76.43-1.51.86-2.28,1.28A1.27,1.27,0,0,1,221,439.58Z"/><path class="cls-1" d="M132.2,460.1a1.29,1.29,0,1,1,0-2.58c1.74,0,3.49,0,5.23-.07a1.31,1.31,0,0,1,1.32,1.26,1.29,1.29,0,0,1-1.26,1.32c-1.76.05-3.52.07-5.29.07Zm-7.89-.13h0c-1.77-.05-3.53-.14-5.29-.24a1.28,1.28,0,0,1-1.21-1.36,1.26,1.26,0,0,1,1.36-1.22q2.61.15,5.22.24a1.29,1.29,0,0,1,0,2.58Zm21-.26a1.3,1.3,0,0,1-.07-2.59c1.74-.1,3.48-.23,5.21-.37a1.3,1.3,0,0,1,1.39,1.18,1.28,1.28,0,0,1-1.17,1.4c-1.76.14-3.52.27-5.28.37Zm-34.15-.56h-.12c-1.76-.16-3.52-.35-5.27-.55a1.29,1.29,0,0,1-1.13-1.44A1.27,1.27,0,0,1,106.1,456c1.73.2,3.47.39,5.2.55a1.29,1.29,0,0,1-.11,2.58Zm47.24-.62a1.29,1.29,0,0,1-.15-2.57c1.74-.21,3.46-.44,5.18-.69a1.29,1.29,0,1,1,.38,2.56c-1.75.25-3.49.48-5.25.69Zm-60.3-1h-.2c-1.75-.27-3.49-.57-5.22-.88a1.29,1.29,0,1,1,.46-2.54q2.56.47,5.16.86a1.29,1.29,0,0,1-.2,2.57Zm73.3-1a1.3,1.3,0,0,1-.23-2.57q2.58-.47,5.12-1a1.29,1.29,0,1,1,.54,2.53c-1.72.36-3.45.71-5.2,1ZM85.2,455.11a1.33,1.33,0,0,1-.28,0c-1.73-.39-3.45-.79-5.16-1.22a1.29,1.29,0,1,1,.63-2.51q2.52.63,5.09,1.2a1.3,1.3,0,0,1-.28,2.56Zm99.07-1.36a1.3,1.3,0,0,1-.32-2.55c1.7-.43,3.38-.89,5-1.36a1.29,1.29,0,0,1,1.6.89,1.28,1.28,0,0,1-.89,1.59q-2.53.74-5.11,1.39A1.75,1.75,0,0,1,184.27,453.75ZM72.46,451.82a1.18,1.18,0,0,1-.37-.05Q69.54,451,67,450.19a1.29,1.29,0,0,1,.81-2.46q2.47.82,5,1.56a1.29,1.29,0,0,1-.37,2.53ZM196.88,450a1.3,1.3,0,0,1-1.23-.88,1.28,1.28,0,0,1,.81-1.63q2.49-.84,4.92-1.74a1.29,1.29,0,1,1,.91,2.42q-2.47.92-5,1.77A1.51,1.51,0,0,1,196.88,450ZM60,447.61a1.48,1.48,0,0,1-.46-.08q-2.49-1-4.92-2a1.29,1.29,0,0,1,1-2.38q2.4,1,4.84,1.94a1.29,1.29,0,0,1-.46,2.5Zm149.16-2.27a1.29,1.29,0,0,1-.52-2.48q2.42-1,4.75-2.15a1.29,1.29,0,1,1,1.11,2.34c-1.58.75-3.2,1.48-4.83,2.19A1.32,1.32,0,0,1,209.16,445.34ZM47.93,442.4a1.27,1.27,0,0,1-.56-.13q-2.4-1.17-4.73-2.42a1.29,1.29,0,0,1-.53-1.75,1.31,1.31,0,0,1,1.75-.53q2.28,1.23,4.64,2.37a1.29,1.29,0,0,1-.57,2.46Zm-11.52-6.33a1.32,1.32,0,0,1-.68-.19c-1.53-.95-3-1.92-4.45-2.9a1.3,1.3,0,0,1-.34-1.8,1.28,1.28,0,0,1,1.79-.33q2.12,1.44,4.36,2.83a1.29,1.29,0,0,1-.68,2.39Zm-10.74-7.56a1.32,1.32,0,0,1-.81-.29c-1.41-1.13-2.76-2.29-4.06-3.46a1.3,1.3,0,0,1,1.74-1.92c1.25,1.14,2.57,2.26,3.94,3.37a1.3,1.3,0,0,1,.2,1.82A1.32,1.32,0,0,1,25.67,428.51Zm-9.58-9a1.31,1.31,0,0,1-1-.42c-1.2-1.33-2.36-2.71-3.44-4.1a1.29,1.29,0,1,1,2-1.58c1,1.33,2.16,2.66,3.32,3.95a1.29,1.29,0,0,1-.09,1.82A1.27,1.27,0,0,1,16.09,419.52ZM8.27,409a1.29,1.29,0,0,1-1.12-.64c-.92-1.56-1.77-3.16-2.51-4.75a1.28,1.28,0,0,1,.62-1.72A1.3,1.3,0,0,1,7,402.5c.71,1.52,1.52,3.05,2.4,4.54a1.29,1.29,0,0,1-.46,1.77A1.28,1.28,0,0,1,8.27,409ZM3,397A1.3,1.3,0,0,1,1.79,396,50.91,50.91,0,0,1,.6,390.75a1.3,1.3,0,0,1,1.07-1.48,1.28,1.28,0,0,1,1.48,1.06,45.5,45.5,0,0,0,1.13,5,1.3,1.3,0,0,1-.89,1.6A1.49,1.49,0,0,1,3,397ZM1.29,384h0A1.29,1.29,0,0,1,0,382.67a46.39,46.39,0,0,1,.41-5.4,1.28,1.28,0,0,1,1.46-1.1A1.29,1.29,0,0,1,3,377.63a40.91,40.91,0,0,0-.38,5.08A1.3,1.3,0,0,1,1.29,384Z"/><path class="cls-1" d="M3.46,371a1.11,1.11,0,0,1-.4-.06,1.28,1.28,0,0,1-.83-1.62c.26-.84.56-1.67.87-2.5a1.29,1.29,0,0,1,2.42.91c-.3.79-.58,1.58-.83,2.38A1.31,1.31,0,0,1,3.46,371Z"/><path class="cls-1" d="M39.22,395.3a1.3,1.3,0,0,1-1.22-.87,35.79,35.79,0,0,1-1.34-5.2,1.29,1.29,0,0,1,2.55-.45,31.77,31.77,0,0,0,1.24,4.81,1.29,1.29,0,0,1-.81,1.64A1.23,1.23,0,0,1,39.22,395.3Zm-1.69-12.72h-.09a1.29,1.29,0,0,1-1.2-1.38,34.3,34.3,0,0,1,.81-5.3,1.29,1.29,0,1,1,2.52.59,30.4,30.4,0,0,0-.75,4.9A1.3,1.3,0,0,1,37.53,382.58Zm3.39-12.39a1.24,1.24,0,0,1-.56-.13,1.29,1.29,0,0,1-.6-1.72,43,43,0,0,1,2.63-4.64,1.3,1.3,0,0,1,2.17,1.42,41.23,41.23,0,0,0-2.48,4.34A1.27,1.27,0,0,1,40.92,370.19Zm7.33-10.58a1.3,1.3,0,0,1-1-2.17c1.16-1.27,2.42-2.52,3.74-3.72a1.29,1.29,0,1,1,1.74,1.91c-1.27,1.15-2.47,2.35-3.58,3.56A1.32,1.32,0,0,1,48.25,359.61ZM58,351.1a1.29,1.29,0,0,1-.75-2.34c1.39-1,2.86-2,4.37-2.91A1.29,1.29,0,1,1,62.93,348c-1.48.92-2.88,1.86-4.23,2.82A1.24,1.24,0,0,1,58,351.1ZM69,344.44a1.29,1.29,0,0,1-.59-2.45c1.54-.78,3.12-1.53,4.72-2.25a1.29,1.29,0,1,1,1,2.36c-1.56.7-3.1,1.43-4.6,2.2A1.37,1.37,0,0,1,69,344.44Zm11.85-5.13a1.29,1.29,0,0,1-.45-2.51q2.45-.89,5-1.68a1.3,1.3,0,0,1,.78,2.47q-2.46.77-4.84,1.64A1.41,1.41,0,0,1,80.86,339.31Zm12.35-3.78a1.29,1.29,0,0,1-.32-2.54c1.36-.34,2.73-.67,4.1-1a1.3,1.3,0,0,1,.56,2.53c-1.35.29-2.7.61-4,.94A1.1,1.1,0,0,1,93.21,335.53Z"/><path class="cls-1" d="M130.78,439.22h0c-1.74,0-3.47-.05-5.21-.11a1.3,1.3,0,0,1,.1-2.59c1.71.07,3.42.1,5.13.11a1.3,1.3,0,0,1,0,2.59Zm7.75-.14a1.29,1.29,0,0,1-.05-2.58c1.71-.08,3.42-.17,5.12-.3a1.28,1.28,0,0,1,1.38,1.19,1.3,1.3,0,0,1-1.19,1.39c-1.73.13-3.47.23-5.2.3Zm-20.66-.45h-.11c-1.74-.15-3.47-.33-5.19-.53a1.29,1.29,0,0,1,.31-2.57c1.69.2,3.39.38,5.1.52a1.29,1.29,0,0,1-.11,2.58Zm33.54-.61a1.3,1.3,0,0,1-.16-2.58c1.7-.21,3.39-.45,5.07-.71a1.29,1.29,0,0,1,.41,2.55c-1.71.27-3.43.51-5.16.73Zm-46.36-1-.22,0q-2.58-.44-5.13-1a1.28,1.28,0,0,1-1-1.52,1.3,1.3,0,0,1,1.53-1c1.66.35,3.34.67,5,.95a1.29,1.29,0,0,1-.21,2.57Zm59.1-1.12a1.29,1.29,0,0,1-.27-2.56q2.52-.52,5-1.16a1.29,1.29,0,0,1,.63,2.51c-1.68.42-3.37.82-5.08,1.18Zm-71.73-1.62a1.32,1.32,0,0,1-.34,0q-2.53-.68-5-1.44a1.29,1.29,0,0,1-.85-1.62,1.27,1.27,0,0,1,1.61-.85q2.45.75,4.93,1.41a1.29,1.29,0,0,1-.33,2.54Zm84.22-1.67a1.28,1.28,0,0,1-1.23-.9,1.3,1.3,0,0,1,.84-1.63c1.63-.51,3.25-1.07,4.84-1.65a1.29,1.29,0,0,1,.88,2.43c-1.62.59-3.27,1.16-4.94,1.69A1.32,1.32,0,0,1,176.64,432.59Zm-96.53-2.27a1.24,1.24,0,0,1-.46-.08c-1.64-.62-3.26-1.28-4.84-2a1.29,1.29,0,1,1,1-2.38q2.33,1,4.74,1.92a1.29,1.29,0,0,1-.46,2.5ZM188.72,428a1.3,1.3,0,0,1-.54-2.48q2.35-1,4.61-2.2a1.29,1.29,0,0,1,1.18,2.3c-1.55.79-3.12,1.54-4.73,2.26A1.23,1.23,0,0,1,188.72,428Zm-120.4-3a1.3,1.3,0,0,1-.6-.15q-1.66-.87-3.27-1.8a1.29,1.29,0,0,1-.47-1.77,1.28,1.28,0,0,1,1.76-.47c1,.6,2.11,1.19,3.19,1.75a1.3,1.3,0,0,1-.61,2.44ZM200.13,422a1.29,1.29,0,0,1-.69-2.39q2.22-1.38,4.23-2.83a1.29,1.29,0,0,1,1.51,2.1c-1.39,1-2.84,2-4.37,2.93A1.3,1.3,0,0,1,200.13,422Zm10.32-7.75a1.31,1.31,0,0,1-1-.42,1.28,1.28,0,0,1,.09-1.82c1.26-1.16,2.47-2.36,3.57-3.57a1.29,1.29,0,0,1,1.91,1.74c-1.16,1.27-2.42,2.52-3.74,3.73A1.28,1.28,0,0,1,210.45,414.21Zm8.4-9.76a1.3,1.3,0,0,1-1.08-2,40.39,40.39,0,0,0,2.46-4.35,1.28,1.28,0,0,1,1.72-.61,1.3,1.3,0,0,1,.61,1.72,44,44,0,0,1-2.62,4.65A1.3,1.3,0,0,1,218.85,404.45ZM224,392.66a1,1,0,0,1-.29,0,1.3,1.3,0,0,1-1-1.55,30.52,30.52,0,0,0,.73-4.9,1.29,1.29,0,0,1,2.58.17,33.21,33.21,0,0,1-.79,5.31A1.3,1.3,0,0,1,224,392.66Zm.32-12.83a1.31,1.31,0,0,1-1.28-1.06,32,32,0,0,0-1.25-4.8,1.29,1.29,0,1,1,2.44-.85,34.82,34.82,0,0,1,1.36,5.19,1.29,1.29,0,0,1-1,1.5Zm-4.59-12a1.3,1.3,0,0,1-1.11-.63,42.3,42.3,0,0,0-2.82-4.16,1.3,1.3,0,0,1,2.06-1.57,45.4,45.4,0,0,1,3,4.4,1.28,1.28,0,0,1-.45,1.77A1.23,1.23,0,0,1,219.7,367.83Zm-8.06-10.06a1.3,1.3,0,0,1-.9-.36c-1.17-1.14-2.44-2.28-3.77-3.38a1.29,1.29,0,1,1,1.64-2c1.39,1.14,2.71,2.33,3.94,3.51a1.29,1.29,0,0,1-.91,2.22Zm-10.09-8a1.31,1.31,0,0,1-.71-.21c-1.38-.91-2.83-1.81-4.33-2.68a1.29,1.29,0,1,1,1.29-2.23q2.32,1.33,4.46,2.75a1.29,1.29,0,0,1-.71,2.37Z"/><path class="cls-1" d="M131.42,412.3c-12.35,0-24.72-2.72-34.14-8.17s-14.55-12.68-14.55-20.45c0-7.53,4.86-14.56,13.69-19.86v-11H99v12.5l-.65.38c-8.41,4.86-13,11.25-13,18S90,397,98.57,401.9c18.07,10.43,47.37,10.48,65.32.12l1.29,2.24C155.89,409.62,143.66,412.3,131.42,412.3Z"/><path class="cls-2" d="M152.07,334.48c0,33.08-22,59-22,59s-22-26-22-59c0-15.3,9.83-27.69,22-27.69S152.07,319.18,152.07,334.48Z"/><path class="cls-1" d="M174.25,245l39.41,21V239.45a20.68,20.68,0,0,0-2.07-9.59l-17-32.38c-3.67-7-11.6-8.21-20.32-3.17h0Z"/><path class="cls-1" d="M85.13,245,45.72,266V239.45a20.68,20.68,0,0,1,2.07-9.59l17-32.38c3.66-7,11.59-8.21,20.32-3.17h0Z"/><path class="cls-2" d="M148.45,298.94H110.92v5.29h0s0,.1,0,.15c0,6,8.4,10.93,18.77,10.93s18.76-4.89,18.76-10.93v-.15h0Z"/><path class="cls-1" d="M174.51,252H84.87v26.63h0c0,.13,0,.24,0,.36,0,14.42,20.07,26.1,44.82,26.1s44.82-11.68,44.82-26.1c0-.12,0-.23,0-.36h0Z"/><path class="cls-3" d="M148.45,298.94H110.92v5.29h0s0,.1,0,.15c0,6,8.4,10.93,18.77,10.93s18.76-4.89,18.76-10.93v-.15h0Z"/><path class="cls-4" d="M170.36,255.32h-1V233.69a14.15,14.15,0,0,0-1.53-6.65l-5.12-9.74L163.94,207a67.11,67.11,0,0,0-11.13-46.16c-.38-.56-.77-1.11-1.17-1.66l-13.79-18.89.81-.59,13.78,18.89q.62.83,1.2,1.68a68.15,68.15,0,0,1,11.29,46.85l-1.19,10,5,9.46a15.13,15.13,0,0,1,1.64,7.12Z"/><path class="cls-1" d="M199.76,168.63c4.54-38-4.25-76.63-26-108.12q-1.36-2-2.79-3.93L129.69,0,88.39,56.58q-1.42,2-2.79,3.93C63.87,92,55.07,130.64,59.61,168.63l10.55,88.22h0c0,.16,0,.31,0,.47,0,19.15,26.65,34.67,59.53,34.67s59.53-15.52,59.53-34.67c0-.16,0-.31,0-.47h0Z"/><path class="cls-5" d="M120.72,152.83c-2.1-52.46.83-105.65,8.66-152.41l-41,56.16q-1.42,2-2.79,3.93C63.87,92,55.07,130.64,59.61,168.63l10.55,88.22h0c0,.16,0,.31,0,.47,0,18.49,24.84,33.58,56.13,34.61Z"/><path class="cls-6" d="M120.67,192.07c0,8.22-2.84,14.05-7.45,16.87l-4.58,2.89c-4.8,2.69-1.73-3.41-9-7.62C84.93,195.74,73,175.21,73,158.37c0-8.33-7.7-8.4-3-11.18l5.49-3c4.79-2.6,11.33-2.12,18.55,2.05C108.77,154.7,120.67,175.22,120.67,192.07Z"/><path class="cls-7" d="M120.67,192.07c0,8.22-2.84,14.05-7.45,16.87l-4.58,2.89c-4.8,2.69-1.73-3.41-9-7.62C84.93,195.74,73,175.21,73,158.37c0-8.33-7.7-8.4-3-11.18l5.49-3c4.79-2.6,11.33-2.12,18.55,2.05C108.77,154.7,120.67,175.22,120.67,192.07Z"/><ellipse class="cls-2" cx="88.85" cy="179.82" rx="21.63" ry="37.47" transform="translate(-78.61 69.42) rotate(-30.31)"/><path class="cls-1" d="M110.43,192.28c0,13.68-9.66,19.19-21.58,12.31S67.26,181,67.26,167.36s9.67-19.19,21.59-12.3S110.43,178.61,110.43,192.28Z"/><path class="cls-2" d="M93.09,202.81c-11.92-6.88-21.58-23.55-21.58-37.23,0-6.3,2-10.87,5.44-13.29-5.84,1.07-9.69,6.44-9.69,15.07,0,13.68,9.67,30.35,21.59,37.23,6.42,3.71,12.19,3.81,16.14,1C101.58,206.2,97.49,205.35,93.09,202.81Z"/><path class="cls-8" d="M93.09,202.81c-11.92-6.88-21.58-23.55-21.58-37.23,0-6.3,2-10.87,5.44-13.29-5.84,1.07-9.69,6.44-9.69,15.07,0,13.68,9.67,30.35,21.59,37.23,6.42,3.71,12.19,3.81,16.14,1C101.58,206.2,97.49,205.35,93.09,202.81Z"/><path class="cls-1" d="M89.63,148.65c-7-4.06-14.32-3.79-17.69-2.2,4.43-1.24,10.69-.49,16.65,3,14.68,8.48,26.58,29,26.58,45.85,0,8.77-4,15-9.16,17.56,5.42-2,10.2-8.31,10.2-18.32C116.21,177.65,104.31,157.12,89.63,148.65Z"/><path class="cls-1" d="M85.56,281.47,54.2,341.53l-6.35-3.74V312.36a37.5,37.5,0,0,1,2-11.47l16.29-49.8c3.51-10.72,11.1-20.66,19.44-25.48h0l6.1,3.68Z"/><path class="cls-1" d="M91.91,285.21,54.2,341.53V316.1a37.25,37.25,0,0,1,2-11.47l16.29-49.79c3.5-10.72,11.09-20.67,19.44-25.49h0Z"/><path class="cls-2" d="M54.75,316.79a37.49,37.49,0,0,1,2-11.46L73,255.53c3.35-10.24,10.43-19.77,18.33-24.8v-1.52h0C83,234,75.42,244,71.91,254.7L55.62,304.49a37.55,37.55,0,0,0-2,11.47V341.4l1.11-1.66Z"/><path class="cls-1" d="M173.81,281.47l31.37,60.06,6.35-3.74V312.36a37.23,37.23,0,0,0-2-11.47l-16.29-49.8c-3.5-10.72-11.09-20.66-19.44-25.48h0l-6.09,3.68Z"/><path class="cls-1" d="M167.47,285.21l37.71,56.32V316.1a37.55,37.55,0,0,0-2-11.47l-16.29-49.79c-3.51-10.72-11.09-20.67-19.44-25.49h0Z"/><path class="cls-2" d="M204,304.63l-16.29-49.79c-3.5-10.72-11.09-20.67-19.44-25.49h0v.32c7.55,5.17,14.24,14.37,17.47,24.23l16.29,49.8a37.5,37.5,0,0,1,2,11.47v23.41l2,2.95V316.1A37.25,37.25,0,0,0,204,304.63Z"/><path class="cls-2" d="M171,56.58,129.69,0,88.39,56.58c-.24.32-.45.64-.68,1,7.14,9.36,23.25,15.9,42,15.9s34.83-6.54,42-15.9Z"/><path class="cls-9" d="M88.38,56.59c-.23.31-.45.63-.67.95,6.07,7.95,18.6,13.84,33.71,15.45a683.2,683.2,0,0,1,8-72.57l-41,56.16Z"/><path class="cls-1" d="M93.53,361.45a1.31,1.31,0,0,1-.61-.15,1.29,1.29,0,0,1-.53-1.75l4.15-7.68a1.19,1.19,0,0,1,1.14-.67,1.29,1.29,0,0,1,1.13.66l4.21,7.55a1.29,1.29,0,0,1-2.25,1.26l-3.07-5.5-3,5.61A1.3,1.3,0,0,1,93.53,361.45Z"/><path class="cls-8" d="M152.07,334.48c0,33.08-22,59-22,59s-22-26-22-59c0-15.3,9.83-27.69,22-27.69S152.07,319.18,152.07,334.48Z"/></g></g></svg>