<svg xmlns="http://www.w3.org/2000/svg" viewBox="0 0 1013.72 724.09"><defs><style>.cls-1{fill:#002433;}.cls-2{fill:#14ff85;}</style></defs><title>image</title><g id="Layer_2" data-name="Layer 2"><g id="Layer_1-2" data-name="Layer 1"><rect class="cls-1" x="132.66" y="346.79" width="103.57" height="376.12" rx="10.46"/><path class="cls-1" d="M500,301.82H417.6c-5.78,0-10.57,5.56-10.57,12V710.48c0,6.47,4.79,12.44,10.57,12.44H500c5.78,0,11.93-6,11.93-12.44V313.86C512,307.38,505.82,301.82,500,301.82Z"/><rect class="cls-1" x="272.12" y="229.6" width="103.57" height="493.32" rx="10.46"/><rect class="cls-1" x="720.47" y="61.98" width="103.57" height="660.94" rx="10.46"/><rect class="cls-1" x="566.48" y="153.28" width="103.57" height="569.64" rx="10.46"/><path class="cls-2" d="M640.24,651.24,830.82,286.12h-39a8.53,8.53,0,0,1-6.6-13.94L988.31,24.61c8.81-10.73,26.2-3.93,25.38,9.93L999.41,276.63a24.19,24.19,0,0,1-26.9,22.61l-27.22-3.11L756.18,705.65a30.1,30.1,0,0,1-27.33,17.49H663.31Z"/><path class="cls-2" d="M482.66,395.16,617.21,694.05a49.35,49.35,0,0,0,45,29.09h69.36a25.34,25.34,0,0,0,22.15-13l2.46-4.45h0a19.84,19.84,0,0,1-17.66-10.81L559.25,343.58Z"/><path class="cls-2" d="M577.36,379.06h0a29.42,29.42,0,0,0-42.74,6.79L336.8,683.07a85.48,85.48,0,0,1-71.14,38.1H237.82l-22.66-65.26s183.92-282,231.32-324.65c0,0,47.2-42.54,93.75-10.38a77.7,77.7,0,0,1,27.33,34.45Z"/><path class="cls-2" d="M0,480.4S33.11,439,97.28,432.57c0,0,30.48,10.38,91.2,119.18s101,158.42,148.32,131.32l-3.92,6.5a71.33,71.33,0,0,1-61.1,34.52H245.63A89.46,89.46,0,0,1,173,686.87C125.72,621.17,29,490.6,0,480.4Z"/><path class="cls-2" d="M990.77,111.24h-.23a2,2,0,0,1-1.8-2.26l1.34-11.82a2,2,0,1,1,4.06.46l-1.34,11.82A2,2,0,0,1,990.77,111.24Z"/><path class="cls-2" d="M821.2,260.46a2,2,0,0,1-1.62-3.29L987.32,39.22a7.19,7.19,0,0,1,12.84,5.2l-3,26.12a2,2,0,1,1-4.06-.46l3-26.12a3.1,3.1,0,0,0-5.54-2.24l-167.74,218A2,2,0,0,1,821.2,260.46Z"/><path class="cls-2" d="M440.68,488.94a2,2,0,0,1-1.14-.35,2,2,0,0,1-.55-2.83l86.75-128.59a15.44,15.44,0,0,1,26.76,2,2,2,0,0,1-3.69,1.75,11.35,11.35,0,0,0-19.68-1.49L442.38,488A2,2,0,0,1,440.68,488.94Z"/><path class="cls-2" d="M418.14,522.36A2.06,2.06,0,0,1,417,522a2,2,0,0,1-.55-2.84l5.56-8.24a2,2,0,1,1,3.39,2.28l-5.56,8.25A2.08,2.08,0,0,1,418.14,522.36Z"/><polygon class="cls-1" points="190.86 219.94 188.9 216.35 326.74 141.03 454.88 197.36 564.91 89.44 565.12 89.31 694.31 13.06 696.39 16.59 567.41 92.7 455.77 202.22 326.94 145.59 190.86 219.94"/><path class="cls-1" d="M204.71,218.14a14.83,14.83,0,1,1-14.83-14.82A14.83,14.83,0,0,1,204.71,218.14Z"/><circle class="cls-1" cx="326.84" cy="143.31" r="14.83" transform="translate(112.27 428.48) rotate(-76.72)"/><circle class="cls-1" cx="455.32" cy="196.96" r="14.83" transform="translate(-5.91 379.65) rotate(-45)"/><circle class="cls-1" cx="562.63" cy="91.07" r="14.83"/><circle class="cls-1" cx="695.35" cy="14.83" r="14.83" transform="translate(415.56 651.57) rotate(-67.5)"/></g></g></svg>