<svg xmlns="http://www.w3.org/2000/svg" viewBox="0 0 33.87 30"><defs><style>.cls-1{fill:#14ff85;}</style></defs><title>logo-nav</title><g id="Layer_2" data-name="Layer 2"><g id="Layer_1-2" data-name="Layer 1"><polygon class="cls-1" points="17.84 14.87 17.83 14.87 16.94 13.33 16.94 13.32 16.95 13.32 17.84 14.87"/><polygon class="cls-1" points="20.44 19.38 18.9 16.72 18.91 16.72 20.44 19.38"/><path class="cls-1" d="M32.87,29.73A2,2,0,0,1,30.14,29a2,2,0,0,1,0-2L26.57,20.8H23.1l1,1.71h0a1.57,1.57,0,0,1,1.37.79,1.6,1.6,0,1,1-2.76,0L21.26,20.8l-.82-1.42-1.53-2.66h7.61l2.36,4.08,3,5.19a2,2,0,0,1,1,3.74Z"/><polygon class="cls-1" points="16.05 14.87 16.94 13.33 16.06 14.87 16.05 14.87"/><polygon class="cls-1" points="16.95 13.32 16.94 13.33 16.94 13.32 16.95 13.32"/><path class="cls-1" d="M15,16.72l-1.23,2.13L12.63,20.8l-1.45,2.51a1.6,1.6,0,1,1-2.76,0,1.57,1.57,0,0,1,1.37-.79h0l1-1.71H7.31L3.74,27a2,2,0,0,1,0,2A2,2,0,0,1,.27,27,2,2,0,0,1,2,26L5,20.8l2.36-4.08Z"/><polygon class="cls-1" points="7.36 16.72 5 20.8 4.99 20.8 7.33 16.72 7.36 16.72"/><polygon class="cls-1" points="25.45 14.87 17.84 14.87 16.95 13.32 16.94 13.32 16.94 13.33 16.05 14.87 8.43 14.87 10.61 11.09 23.27 11.09 25.45 14.87"/><polygon class="cls-1" points="10.61 11.09 8.43 14.87 8.39 14.87 10.56 11.09 10.61 11.09"/><polygon class="cls-1" points="22.24 9.24 11.62 9.24 16.92 0 22.24 9.24"/><polygon class="cls-1" points="25.48 14.87 25.45 14.87 23.27 11.09 23.3 11.09 25.48 14.87"/><polygon class="cls-1" points="28.9 20.8 28.88 20.8 26.52 16.72 26.54 16.72 28.9 20.8"/></g></g></svg>